FILE "blahblah.m4b" MP3
TRACK 1 AUDIO
  TITLE "title1"
  INDEX 01 0:00:00
TRACK 2 AUDIO
  TITLE "title2"
  INDEX 01 0:07:01
TRACK 3 AUDIO
  TITLE "title3"
  INDEX 01 85:08:39
TRACK 4 AUDIO
  TITLE "title4"
  INDEX 01 144:49:32
TRACK 5 AUDIO
  TITLE "title5"
  INDEX 01 152:53:69
